<svg width="34" height="34" viewBox="0 0 34 34" fill="none" xmlns="http://www.w3.org/2000/svg">
<path d="M5.76694 23.553L4.93696 22.9952L4.93695 22.9952L5.76694 23.553ZM7.4005 18.3173L6.4005 18.3065V18.3173H7.4005ZM7.43479 15.1518L8.43479 15.1627V15.1518H7.43479ZM27.9532 23.5784L28.7937 23.0367L28.7937 23.0367L27.9532 23.5784ZM26.3811 18.3173L25.3811 18.3059V18.3173H26.3811ZM26.4154 15.3087L27.4154 15.3201V15.3087H26.4154ZM13.11 28.7861C12.5577 28.7861 12.11 29.2338 12.11 29.7861C12.11 30.3384 12.5577 30.7861 13.11 30.7861V28.7861ZM20.6014 30.7861C21.1537 30.7861 21.6014 30.3384 21.6014 29.7861C21.6014 29.2338 21.1537 28.7861 20.6014 28.7861V30.7861ZM6.59693 24.1108C7.50864 22.7541 8.4005 20.7488 8.4005 18.3173H6.4005C6.4005 20.255 5.68773 21.878 4.93696 22.9952L6.59693 24.1108ZM8.40044 18.3282L8.43473 15.1627L6.43484 15.141L6.40056 18.3065L8.40044 18.3282ZM28.7937 23.0367C28.0736 21.9193 27.3811 20.2808 27.3811 18.3173H25.3811C25.3811 20.7531 26.2378 22.7627 27.1126 24.1201L28.7937 23.0367ZM27.381 18.3287L27.4153 15.3201L25.4154 15.2973L25.3811 18.3059L27.381 18.3287ZM27.4154 15.3087C27.4154 8.90716 22.7993 3.50278 16.8557 3.50278V5.50278C21.4714 5.50278 25.4154 9.77435 25.4154 15.3087H27.4154ZM27.3811 26.0454C28.2677 26.0454 28.7664 25.3561 28.9514 24.8647C29.145 24.3506 29.18 23.6361 28.7937 23.0367L27.1126 24.1201C27.0875 24.0811 27.0915 24.0627 27.0926 24.0834C27.0936 24.1041 27.0895 24.1339 27.0797 24.1599C27.0689 24.1886 27.066 24.1753 27.1019 24.1434C27.1219 24.1256 27.1562 24.1006 27.2064 24.0799C27.2583 24.0585 27.3184 24.0454 27.3811 24.0454V26.0454ZM8.43479 15.1518C8.43479 9.70412 12.3166 5.50278 16.8557 5.50278V3.50278C10.9887 3.50278 6.43479 8.83693 6.43479 15.1518H8.43479ZM6.33169 24.0454C6.39571 24.0454 6.45695 24.059 6.50953 24.081C6.56035 24.1023 6.59448 24.1279 6.6139 24.1455C6.64851 24.1767 6.64391 24.1881 6.63221 24.156C6.62158 24.1269 6.61754 24.0944 6.6189 24.0723C6.62027 24.0499 6.62446 24.0698 6.59693 24.1108L4.93695 22.9952C4.53267 23.5968 4.56422 24.3237 4.75359 24.8422C4.93393 25.3359 5.43116 26.0454 6.33169 26.0454V24.0454ZM27.3811 24.0454H6.33169V26.0454H27.3811V24.0454ZM13.11 30.7861H20.6014V28.7861H13.11V30.7861Z" fill="white"/>
</svg>
