<svg width="66" height="67" viewBox="0 0 66 67" fill="none" xmlns="http://www.w3.org/2000/svg">
<path fill-rule="evenodd" clip-rule="evenodd" d="M49.2001 52.4955C54.4373 47.8886 57.75 41.087 57.75 33.5C57.75 19.6238 46.669 8.375 33 8.375C19.331 8.375 8.25 19.6238 8.25 33.5C8.25 41.087 11.5627 47.8886 16.7999 52.4955C16.6045 51.7809 16.5 51.0278 16.5 50.25C16.5 45.6246 20.1937 41.875 24.75 41.875H41.25C45.8064 41.875 49.5 45.6246 49.5 50.25C49.5 51.0278 49.3955 51.7809 49.2001 52.4955ZM41.25 25.125C41.25 29.7504 37.5564 33.5 33 33.5C28.4436 33.5 24.75 29.7504 24.75 25.125C24.75 20.4996 28.4436 16.75 33 16.75C37.5564 16.75 41.25 20.4996 41.25 25.125Z" fill="white"/>
<path d="M49.5 52.2274C49.5 47.7055 46.2778 41.8749 41.25 41.875H24.75C19.7222 41.8749 16.5 47.7055 16.5 52.2274M8.25 33.5C8.25 19.6238 19.331 8.375 33 8.375C46.669 8.375 57.75 19.6238 57.75 33.5C57.75 47.3762 46.669 58.625 33 58.625C19.331 58.625 8.25 47.3762 8.25 33.5ZM41.25 25.125C41.25 29.7504 37.5563 33.5 33 33.5C28.4437 33.5 24.75 29.7504 24.75 25.125C24.75 20.4996 28.4437 16.75 33 16.75C37.5563 16.75 41.25 20.4996 41.25 25.125Z" stroke="white" stroke-width="2" stroke-linecap="round" stroke-linejoin="round"/>
</svg>
