<svg width="24" height="24" viewBox="0 0 24 24" fill="none" xmlns="http://www.w3.org/2000/svg">
<path d="M4.03369 6.17647H19.5607M8.88588 3H14.7085M9.85632 16.7647V10.4118M13.7381 16.7647V10.4118M15.1937 21H8.40066C7.32875 21 6.45979 20.0519 6.45979 18.8824L6.01669 7.27937C5.99371 6.67783 6.43447 6.17647 6.98628 6.17647H16.6081C17.1599 6.17647 17.6007 6.67783 17.5777 7.27937L17.1346 18.8824C17.1346 20.0519 16.2656 21 15.1937 21Z" stroke="#FF0000" stroke-width="2" stroke-linecap="round" stroke-linejoin="round"/>
<path d="M4.03369 6.17647H19.5607M8.88588 3H14.7085M9.85632 16.7647V10.4118M13.7381 16.7647V10.4118M15.1937 21H8.40066C7.32875 21 6.45979 20.0519 6.45979 18.8824L6.01669 7.27937C5.99371 6.67783 6.43447 6.17647 6.98628 6.17647H16.6081C17.1599 6.17647 17.6007 6.67783 17.5777 7.27937L17.1346 18.8824C17.1346 20.0519 16.2656 21 15.1937 21Z" stroke="#FF0000" stroke-width="2" stroke-linecap="round" stroke-linejoin="round"/>
</svg>
