<svg width="24" height="24" viewBox="0 0 24 24" fill="none" xmlns="http://www.w3.org/2000/svg">
<path d="M4.06348 6.17647H19.5905M8.91567 3H14.7383M9.88611 16.7647V10.4118M13.7679 16.7647V10.4118M15.2235 21H8.43045C7.35853 21 6.48957 20.0519 6.48957 18.8824L6.04647 7.27937C6.0235 6.67783 6.46426 6.17647 7.01607 6.17647H16.6379C17.1897 6.17647 17.6305 6.67783 17.6075 7.27937L17.1644 18.8824C17.1644 20.0519 16.2954 21 15.2235 21Z" stroke="#FF0000" stroke-width="2" stroke-linecap="round" stroke-linejoin="round"/>
<path d="M4.06348 6.17647H19.5905M8.91567 3H14.7383M9.88611 16.7647V10.4118M13.7679 16.7647V10.4118M15.2235 21H8.43045C7.35853 21 6.48957 20.0519 6.48957 18.8824L6.04647 7.27937C6.0235 6.67783 6.46426 6.17647 7.01607 6.17647H16.6379C17.1897 6.17647 17.6305 6.67783 17.6075 7.27937L17.1644 18.8824C17.1644 20.0519 16.2954 21 15.2235 21Z" stroke="#FF0000" stroke-width="2" stroke-linecap="round" stroke-linejoin="round"/>
</svg>
