<svg width="634" height="222" viewBox="0 0 634 222" fill="none" xmlns="http://www.w3.org/2000/svg">
<path d="M546.522 150.894C579.309 139.415 617.725 155.676 632.834 165.242V221.186H1.25946V2.30347C32.9893 8.86965 53.387 62.8583 58.4865 97.1484C62.6456 125.115 62.8304 145.057 84.928 150.894C107.144 156.761 133.483 138.09 155.77 112.798C173.599 92.5643 200.217 104.367 211.297 112.798C230.939 127.47 263.295 137.421 289.283 122.44C321.769 103.715 339.711 109.065 380.696 122.44C421.68 135.816 417.525 144.328 451.71 165.242C485.895 186.157 505.537 165.242 546.522 150.894Z" fill="url(#paint0_linear_34_1703)"/>
<path d="M632.834 165.242C617.725 155.676 579.309 139.415 546.522 150.894C505.537 165.242 485.895 186.157 451.71 165.242C417.525 144.328 421.68 135.816 380.696 122.44C339.711 109.065 321.769 103.715 289.283 122.44C263.295 137.421 230.939 127.47 211.297 112.798C200.217 104.367 173.599 92.5643 155.77 112.798C133.483 138.09 107.144 156.761 84.928 150.894C62.8305 145.057 62.6456 125.115 58.4865 97.1484C53.387 62.8583 32.9893 8.86965 1.25944 2.30347" stroke="#2D3748" stroke-width="3"/>
<path d="M86.9087 127.153C54.3733 115.683 16.2528 131.932 1.25952 141.491V220.966H632.083V32.8964C600.597 39.4578 573.85 37.7563 568.79 72.0213C564.662 99.9679 564.479 119.895 542.551 125.727C520.506 131.591 507.692 97.2946 485.577 72.0213C467.885 51.8025 438.088 78.1124 427.093 86.5369C407.602 101.199 363.293 69.2088 344.09 44.0624C316.671 8.15613 280.613 4.87202 253.381 44.0624C226.148 83.2527 199.136 51.1221 165.214 72.0213C131.292 92.9204 127.578 141.491 86.9087 127.153Z" fill="url(#paint1_linear_34_1703)"/>
<path d="M1.25952 141.652C16.2528 132.081 54.3733 115.811 86.9087 127.296C127.578 141.652 131.292 93.019 165.214 72.0931C199.136 51.1672 226.148 83.339 253.381 44.0984C280.613 4.85791 316.671 8.14623 344.09 44.0984C363.293 69.2771 407.602 101.308 427.093 86.6273C438.088 78.1921 467.885 51.8485 485.577 72.0931C507.692 97.3988 520.506 131.739 542.551 125.868C564.479 120.028 564.662 100.075 568.79 72.0931C573.85 37.7843 600.597 39.488 632.083 32.9182" stroke="#4FD1C5" stroke-width="3"/>
<defs>
<linearGradient id="paint0_linear_34_1703" x1="317.047" y1="2.30347" x2="317.047" y2="221.186" gradientUnits="userSpaceOnUse">
<stop stop-color="#2D3748" stop-opacity="0.36"/>
<stop offset="1" stop-color="#2D3748" stop-opacity="0"/>
</linearGradient>
<linearGradient id="paint1_linear_34_1703" x1="316.671" y1="15.8877" x2="316.671" y2="220.966" gradientUnits="userSpaceOnUse">
<stop stop-color="#4FD1C5" stop-opacity="0.54"/>
<stop offset="1" stop-color="#4FD1C5" stop-opacity="0"/>
</linearGradient>
</defs>
</svg>
