<svg width="28" height="27" viewBox="0 0 28 27" fill="none" xmlns="http://www.w3.org/2000/svg">
<path d="M18.6667 16.875V21.375C18.6667 23.625 17.5 24.75 15.1667 24.75H12.8333C10.5 24.75 9.33333 23.625 9.33333 21.375V16.875M18.6667 16.875H9.33333M18.6667 16.875V20.25H21C23.3333 20.25 24.5 19.125 24.5 16.875V11.25C24.5 9 23.3333 7.875 21 7.875H7C4.66667 7.875 3.5 9 3.5 11.25V16.875C3.5 19.125 4.66667 20.25 7 20.25H9.33333V16.875M19.8333 16.875H8.16667M8.16667 12.375H11.6667M8.45833 7.875H19.5417V5.625C19.5417 3.375 18.6667 2.25 16.0417 2.25H11.9583C9.33333 2.25 8.45833 3.375 8.45833 5.625V7.875Z" stroke="#292D32" stroke-width="1.5" stroke-miterlimit="10" stroke-linecap="round" stroke-linejoin="round"/>
</svg>
